<svg xmlns="http://www.w3.org/2000/svg" width="60" height="60">
  <g color="#000">
    <path d="M23.7 32.3l5.4 5C38.8 28 52.8 5.5 52.8 5.5 53.3 4 51.3 3 50.3 4c0 0-18.2 18.7-26.6 28.3z" overflow="visible" fill="#a25a0d" stroke="#673907" stroke-width="1.3" stroke-linecap="round"/>
    <path d="M13.7 46l3 2.4 11.2-9.7.3-1h1.4c-.6-2-4-5.8-6.4-5.8v1.3l-.8.5-8.8 12z" overflow="visible" fill="#c9c9c9" stroke="#888a85" stroke-width="1.3" stroke-linecap="round"/>
    <path d="M0 56.4c8.8 0 15.4 1 16.7-5.4 1-5-6-7.6-9.6-3-3.3 4.4-7 8.4-7 8.4z" overflow="visible" fill="#181818"/>
    <g transform="matrix(1.32656 0 0 1.32656 -2.332 2.332)">
      <path d="M35 7.4c-3 0-5.4 1-5.4 2.2V13c0 1.4 2.7 2.4 6 2.4s6-1 6-2.3V9.7c0-1.3-2.7-2.2-6-2.2H35z" overflow="visible" fill="#5588bf" stroke="#204a87" stroke-linecap="round"/>
      <ellipse transform="matrix(.88628 0 0 .4689 -10.444 -9.72)" cx="52" cy="49.8" rx="5.4" ry="1.5" overflow="visible" fill="#3465a4"/>
      <path d="M28 39.2l1-21.4 2.5-3.7c2-.5 6.7-.5 8.5 0l2.5 3.2L45 39.7l-17-.5z" overflow="visible" fill="#dfdfdf" stroke="#5a5a5a" stroke-linecap="round"/>
      <path d="M29.2 20.5L29 27c1.5-1 12-1.3 14.2.4l-.7-6.6c-1.4-1-10.6-1.5-13.3-.3z" overflow="visible" fill="#477db7"/>
      <rect ry=".9" rx=".9" y="37.5" x="26.5" height="3.9" width="20" overflow="visible" fill="#d3d3d3" stroke="#5a5a5a" stroke-linecap="round"/>
      <path d="M29.4 18c2-1.4 9-1.7 12.7-.6l-2.2-3c-2.5-.6-6-.3-8.3.2l-2 3.4z" overflow="visible" fill="#fff"/>
    </g>
  </g>
</svg>
