<?xml version="1.0" encoding="UTF-8" standalone="no"?>
<!-- Created with Inkscape (http://www.inkscape.org/) -->

<svg
   xmlns:dc="http://purl.org/dc/elements/1.1/"
   xmlns:cc="http://creativecommons.org/ns#"
   xmlns:rdf="http://www.w3.org/1999/02/22-rdf-syntax-ns#"
   xmlns:svg="http://www.w3.org/2000/svg"
   xmlns="http://www.w3.org/2000/svg"
   xmlns:sodipodi="http://sodipodi.sourceforge.net/DTD/sodipodi-0.dtd"
   xmlns:inkscape="http://www.inkscape.org/namespaces/inkscape"
   width="60"
   height="60"
   id="svg2"
   sodipodi:version="0.32"
   inkscape:version="0.91 r13725"
   version="1.0"
   sodipodi:docname="work_exp.svg"
   inkscape:output_extension="org.inkscape.output.svg.inkscape">
  <defs
     id="defs4">
    <inkscape:perspective
       sodipodi:type="inkscape:persp3d"
       inkscape:vp_x="0 : 24 : 1"
       inkscape:vp_y="0 : 1000 : 0"
       inkscape:vp_z="48 : 24 : 1"
       inkscape:persp3d-origin="24 : 16 : 1"
       id="perspective47" />
    <linearGradient
       id="linearGradient18284">
      <stop
         style="stop-color:#000000;stop-opacity:1;"
         offset="0"
         id="stop18286" />
      <stop
         id="stop20913"
         offset="0.5"
         style="stop-color:#000000;stop-opacity:1;" />
      <stop
         id="stop19165"
         offset="1"
         style="stop-color:#000000;stop-opacity:0;" />
    </linearGradient>
    <linearGradient
       id="linearGradient11202">
      <stop
         style="stop-color:#c4a000;stop-opacity:1;"
         offset="0"
         id="stop11204" />
      <stop
         style="stop-color:#c4a000;stop-opacity:0;"
         offset="1"
         id="stop11206" />
    </linearGradient>
    <linearGradient
       id="linearGradient8543">
      <stop
         style="stop-color:#fffef5;stop-opacity:0.94117647;"
         offset="0"
         id="stop8545" />
      <stop
         style="stop-color:#fce94f;stop-opacity:0;"
         offset="1"
         id="stop8547" />
    </linearGradient>
    <linearGradient
       id="linearGradient5012">
      <stop
         style="stop-color:#fdf188;stop-opacity:1;"
         offset="0"
         id="stop5014" />
      <stop
         style="stop-color:#d3bc00;stop-opacity:1;"
         offset="1"
         id="stop5016" />
    </linearGradient>
  </defs>
  <sodipodi:namedview
     id="base"
     pagecolor="#ffffff"
     bordercolor="#666666"
     borderopacity="0.13333333"
     inkscape:pageopacity="0.0"
     inkscape:pageshadow="2"
     inkscape:zoom="7.9999996"
     inkscape:cx="18.398054"
     inkscape:cy="24.803685"
     inkscape:document-units="px"
     inkscape:current-layer="layer1"
     inkscape:window-width="1920"
     inkscape:window-height="1017"
     inkscape:window-x="1912"
     inkscape:window-y="-8"
     inkscape:showpageshadow="false"
     stroke="#c4a000"
     showgrid="false"
     fit-margin-top="0"
     fit-margin-left="0"
     fit-margin-right="0"
     fit-margin-bottom="0"
     inkscape:window-maximized="1" />
  <metadata
     id="metadata7">
    <rdf:RDF>
      <cc:Work
         rdf:about="">
        <dc:format>image/svg+xml</dc:format>
        <dc:type
           rdf:resource="http://purl.org/dc/dcmitype/StillImage" />
        <dc:contributor>
          <cc:Agent>
            <dc:title>Henrik Andersen</dc:title>
          </cc:Agent>
        </dc:contributor>
        <dc:title>Developer Tools</dc:title>
        <dc:subject>
          <rdf:Bag>
            <rdf:li>developer</rdf:li>
            <rdf:li>dev</rdf:li>
            <rdf:li>tool</rdf:li>
            <rdf:li>make</rdf:li>
            <rdf:li>compile</rdf:li>
            <rdf:li>build</rdf:li>
            <rdf:li>code</rdf:li>
            <rdf:li>hacker</rdf:li>
          </rdf:Bag>
        </dc:subject>
        <dc:creator>
          <cc:Agent>
            <dc:title>Jakub Steiner</dc:title>
          </cc:Agent>
        </dc:creator>
        <dc:source>http://jimmac.musichall.cz</dc:source>
        <cc:license
           rdf:resource="http://creativecommons.org/publicdomain/zero/1.0/" />
      </cc:Work>
      <cc:License
         rdf:about="http://creativecommons.org/publicdomain/zero/1.0/">
        <cc:permits
           rdf:resource="http://creativecommons.org/ns#Reproduction" />
        <cc:permits
           rdf:resource="http://creativecommons.org/ns#Distribution" />
        <cc:permits
           rdf:resource="http://creativecommons.org/ns#DerivativeWorks" />
      </cc:License>
    </rdf:RDF>
  </metadata>
  <g
     inkscape:label="Layer 1"
     id="layer1"
     inkscape:groupmode="layer"
     transform="translate(6.2973419,7.5507793)">
    <path
       style="fill:#d3bc00;fill-opacity:1;stroke:#c4a000;stroke-width:1.38047636;stroke-miterlimit:4;stroke-dasharray:none;stroke-opacity:1"
       d="m 22.942187,-6.859783 c -3.834267,0.053592 -7.31154,0.9793392 -10.397633,2.5347776 -1.511212,2.96525 -6.4868118,6.4900753 -8.5263107,6.8651574 -4.01023106,4.7669275 -6.6107897,10.753296 -7.597198,16.508684 -6.05e-4,0.0036 6.038e-4,0.0072 0,0.01064 -1.6406687,2.135529 -2.3371905,4.680551 -1.9047941,7.62394 1.5505215,10.554635 4.53905447,20.51626 11.31953,22.814763 9.8941748,3.35401 30.2474338,2.46092 34.7527038,0.631486 9.872879,-4.009034 10.747485,-12.794986 12.296353,-23.123413 0.422564,-2.817805 -0.200299,-5.293226 -1.701853,-7.403983 -0.01244,-0.07661 -0.02557,-0.153613 -0.03917,-0.2306 C 50.063392,13.254825 47.206081,7.1224491 42.925486,2.3267493 40.029864,2.0271231 34.434737,-2.6015221 33.079721,-4.871579 c -2.976999,-1.2691183 -6.25342,-1.988204 -9.785058,-1.988204 -0.117988,0 -0.235152,-0.00163 -0.352476,0 z"
       id="path3120"
       sodipodi:nodetypes="cccscsssscsccsc"
       inkscape:connector-curvature="0" />
    <path
       style="opacity:0.66666667;fill:#e9db6b;fill-opacity:1;fill-rule:evenodd;stroke:none;stroke-width:1px;stroke-linecap:butt;stroke-linejoin:miter;stroke-opacity:1"
       d="m 51.260636,22.922934 c -6.356279,22.654855 -45.9019734,24.817675 -55.105359,0.343518 -0.058372,22.49487 8.7403967,28.995628 33.753072,27.843009 4.234543,-0.193871 13.843022,0.05907 20.211014,-12.590597 3.095533,-15.861482 1.141273,-15.59593 1.141273,-15.59593 z"
       id="path7668"
       sodipodi:nodetypes="ccscc"
       inkscape:connector-curvature="0" />
    <path
       style="fill:#f6efad;fill-opacity:1;fill-rule:evenodd;stroke:none;stroke-width:1px;stroke-linecap:butt;stroke-linejoin:miter;stroke-opacity:1"
       d="M 12.87391,-2.7587537 C 14.949059,9.733892 20.857766,21.29184 20.166051,22.009809 13.825324,12.38904 12.182194,7.0056102 10.107047,0.11311828 c 0,-0.11487526 2.766863,-2.84315338 2.766863,-2.87187198 z"
       id="path9436"
       sodipodi:nodetypes="cccc"
       inkscape:connector-curvature="0" />
    <flowRoot
       xml:space="preserve"
       id="flowRoot12974"
       transform="matrix(1.3829441,0,0,1.3780131,-9.0767828,-8.4860969)"><flowRegion
         id="flowRegion12976"><rect
           id="rect12978"
           width="40.055775"
           height="16.02231"
           x="86.787514"
           y="412.80496" /></flowRegion><flowPara
         id="flowPara12980" /></flowRoot>    <path
       style="fill:#f0e377;fill-opacity:1;fill-rule:evenodd;stroke:none;stroke-width:1px;stroke-linecap:butt;stroke-linejoin:miter;stroke-opacity:1"
       d="m 13.254709,39.159559 -0.04477,-13.32426 19.489091,0 2.208739,-1.741178 -22.767014,0 0.06006,14.66286 z"
       id="path13014"
       sodipodi:nodetypes="ccccccc"
       inkscape:connector-curvature="0" />
    <path
       style="fill:#958401;fill-opacity:1;fill-rule:evenodd;stroke:none;stroke-width:1px;stroke-linecap:butt;stroke-linejoin:miter;stroke-opacity:1"
       d="M 32.723354,25.811478 32.999463,39.57833 34.89923,38.97616 34.91015,24.089966 Z"
       id="path13897"
       sodipodi:nodetypes="ccccc"
       inkscape:connector-curvature="0" />
    <path
       sodipodi:nodetypes="cccscsssscsccsc"
       id="path2703"
       d="m 22.985675,-5.1940369 c -3.614918,0.050526 -6.893262,0.9233131 -9.802805,2.389768 -1.42476,2.79561388 -6.115714,6.1187911 -8.0385374,6.4724156 -3.780814,4.4942209 -6.2325998,10.1381213 -7.1625778,15.5642543 -5.703e-4,0.0034 5.692e-4,0.0067 0,0.01005 -1.5468092,2.01336 -2.5701927,4.473686 -2.162533,7.248689 1.4618193,9.950825 4.04871062,18.892114 10.1341857,21.551372 8.1913725,3.579503 29.7882305,2.461043 34.0357635,0.736266 9.308072,-3.779687 9.765935,-12.306614 11.226196,-22.04417 0.39839,-2.656604 -0.188841,-4.990411 -1.604493,-6.980416 -0.01164,-0.07224 -0.02411,-0.144827 -0.03693,-0.217409 C 48.55533,13.769855 45.861481,7.9883005 41.825767,3.4669524 39.095801,3.1844672 33.820759,-1.1793827 32.54326,-3.3195741 c -2.806689,-1.1965145 -5.895673,-1.8744628 -9.225274,-1.8744628 -0.111244,0 -0.221698,-0.00154 -0.332311,0 z"
       style="opacity:0.74444442;fill:none;fill-opacity:1;stroke:none;stroke-width:0.99999976;stroke-miterlimit:4;stroke-dasharray:none;stroke-opacity:1"
       inkscape:connector-curvature="0" />
    <path
       style="opacity:0.59444424;fill:#f6efb0;fill-opacity:1;stroke:none;stroke-width:1;stroke-miterlimit:4;stroke-dasharray:none;stroke-opacity:1"
       d="m 22.169109,-4.653498 c -3.221646,0.1606324 -6.141614,0.9991123 -8.773051,2.325397 C 11.998282,0.4145666 7.3737545,3.6982824 5.487347,4.0452096 1.7781395,8.4543149 -0.60144247,13.96611 -1.5138075,19.289479 c -5.594e-4,0.0034 5.585e-4,0.0398 0,0.04306 -1.517514,1.975229 -2.0163693,4.948649 -2.0163693,4.948649 6.4794622,4.967822 10.5679216,0.294745 19.8021998,-2.779756 17.4241,2.650114 25.927903,-1.372425 31.135817,-7.810135 0.0096,-0.01172 -0.0048,-0.02877 0,-0.04306 C 46.037088,10.089059 44.044146,6.6946285 41.48711,3.8298949 38.808846,3.552759 33.621627,-0.70213485 32.368323,-2.8017929 29.614789,-3.9756469 26.602512,-4.653498 23.335969,-4.653498 c -0.109144,1e-7 -0.237217,-0.00151 -0.345735,0 -0.277067,0.00388 -0.548104,-0.013615 -0.821125,0 z"
       id="path2800"
       sodipodi:nodetypes="cccssccscccssc"
       inkscape:connector-curvature="0" />
    <path
       style="fill:#c4a000;fill-opacity:1;fill-rule:evenodd;stroke:none;stroke-width:1px;stroke-linecap:butt;stroke-linejoin:miter;stroke-opacity:1"
       d="M 32.703093,-3.2182536 C 27.054079,19.526971 26.869347,22.31299 26.869347,22.31299 c 0,0 8.715895,-22.08499705 8.715895,-22.6593711 0,-1.08e-6 -2.190433,-2.067748 -2.882149,-2.8718725 z"
       id="path10319"
       sodipodi:nodetypes="ccsc"
       inkscape:connector-curvature="0" />
  </g>
</svg>
