<svg xmlns="http://www.w3.org/2000/svg" version="1" width="60" height="60">
  <g color="#000" fill-rule="evenodd">
    <path d="M28.5 58.6c1.2-2.7 1-5 3.5-8L29.3 49c-2.5 3-2.4 5.4-3.6 8.2.8-.8 1.5-1.3 2.2-2.4.5 1 .3 2.4.5 3.6z" overflow="visible" fill="#a30000" stroke="#180000" stroke-width=".20487599999999997"/>
    <path d="M56.6 52.5C56 55 55 56.3 54 56.2L4 46s-1.7-2.5-1-5.2c1-3.5 3-4 3-4l49.7 11.4c1 .3 1.4 1.8 1 4.3z" overflow="visible" fill="#ccc8af" stroke="#7c764f" stroke-width=".39267899999999994"/>
    <path d="M31.2 51.6c2.3-2 2.8-7 2-8.7l-3.3-.8c1.2 1.7.2 7.3-2 8.8l3.2.6z" overflow="visible" fill="#c40000" stroke="maroon" stroke-width=".20487599999999997"/>
  </g>
  <path d="M14 21.5v6c6.2.8 11.8 3.4 16 7.5 4.3-4 9.6-6.7 15.6-7.4v-6H14z" fill="#252525" stroke="#2d2d2d"/>
  <path d="M31.3 12.7L59 19c.6 0 .7.3 0 .4l-27.7 7c-.6.3-1.8.3-2.5 0L1 19.4c-.5 0-.8-.3 0-.5l27.5-6.3c1-.3 2.2-.3 2.8 0z" fill="#3a3a3a" stroke="#2d2d2d"/>
  <path d="M31 19.5l-.2.3 8.5 4.6V32c-.2 1.4-1 1-1 2.5V42c0 2.2 2.8 2.2 2.8 0v-7.5c0-1-1-1-1-2.5v-7.8l-9-4.7z" fill="#fc0" fill-rule="evenodd" stroke="#bf9c0e" stroke-width=".7" stroke-miterlimit="4.3"/>
</svg>
