<svg xmlns="http://www.w3.org/2000/svg" width="60" height="60" version="1">
  <path d="M29.2.7c-3.8 0-7.3 1-10.4 2.5-1.5 3-6.4 6.5-8.5 7-4 4.7-6.6 10.6-7.6 16.4-1.6 2-2.3 4.7-2 7.6C2.5 44.8 5.5 54.8 12.2 57c10 3.4 30.4 2.5 35 .7 9.8-4 10.6-12.8 12.2-23 .4-3-.2-5.4-1.7-7.5V27c-1-6.2-4-12.3-8.3-17-3-.4-8.5-5-9.8-7.3-3-1.3-6.3-2-9.8-2h-.4z" fill="#d3bc00" stroke="#c4a000" stroke-width="1.4"/>
  <path d="M57.6 30.5c-6.4 22.6-46 24.8-55 .3-.2 22.5 8.6 29 33.6 28 4.2-.3 13.8 0 20.2-12.7 3-15.8 1.2-15.5 1.2-15.5z" opacity=".7" fill="#e9db6b" fill-rule="evenodd"/>
  <path d="M19.2 4.8c2 12.5 8 24 7.3 24.8-6.4-9.7-8-15-10-22L19 5z" fill="#f6efad" fill-rule="evenodd"/>
  <path d="M19.6 46.7V33.4H39l2.2-1.8H18.4v14.7z" fill="#f0e377" fill-rule="evenodd"/>
  <path d="M39 33.4l.3 13.7 2-.5v-15z" fill="#958401" fill-rule="evenodd"/>
  <path d="M29.3 2.4c-3.6 0-7 1-9.8 2.3-1.4 2.8-6 6.2-8 6.5C7.6 15.7 5 21.4 4.2 26.8c-1.6 2-2.6 4.5-2.2 7.2 1.6 10 4.2 19 10.3 21.6 8 3.6 29.7 2.5 34 .7 9.3-3.8 9.8-12.3 11.2-22 .4-2.7-.2-5-1.6-7V27c-1-5.7-3.8-11.5-8-16-2.6-.3-8-4.6-9.2-6.8-2.8-1.2-6-1.8-9.2-1.8h-.3z" opacity=".7" fill="none"/>
  <path d="M28.5 3c-3.3 0-6.2 1-8.8 2.2-1.4 2.8-6 6-8 6.4-3.6 4.4-6 10-7 15.2-1.4 2-2 5-2 5 6.5 5 10.6.3 20-2.7 17.3 2.7 25.8-1.3 31-7.8-1.4-3.6-3.4-7-6-9.8-2.6-.3-7.8-4.6-9-6.7C36 3.7 33 3 29.7 3H28.4z" opacity=".6" fill="#f6efb0"/>
  <path d="M39 4.3C33.4 27 33.2 30 33.2 30S42 7.7 42 7c0 0-2.3-2-3-3z" fill="#c4a000" fill-rule="evenodd"/>
</svg>
